<?xml version="1.0" encoding="utf-8"?>
<!-- Generator: Adobe Illustrator 16.0.0, SVG Export Plug-In . SVG Version: 6.00 Build 0)  -->
<!DOCTYPE svg PUBLIC "-//W3C//DTD SVG 1.1//EN" "http://www.w3.org/Graphics/SVG/1.1/DTD/svg11.dtd">
<svg version="1.1" xmlns="http://www.w3.org/2000/svg" xmlns:xlink="http://www.w3.org/1999/xlink" x="0px" y="0px" width="800px"
	 height="273.021px" viewBox="0 0 800 273.021" enable-background="new 0 0 800 273.021" xml:space="preserve">
<g id="Artwork">
	<path fill="#CEDC00" d="M676.667,54.484l-30.081-18.159l30.081-18.16V54.484z M676.667,54.484l-30.081,18.161l15.043,9.085
		l15.038-9.08V54.484z"/>
	<path fill="#0082CA" d="M676.667,54.484l-30.081,18.161l-30.079-18.161l30.079-18.159L676.667,54.484z"/>
	<polygon fill="#E63323" points="796.983,18.167 766.896,0 766.896,36.329 	"/>
	<path fill="#08BEC9" d="M676.667,163.455v-54.483l30.078,18.162V54.487l-30.078,18.164V54.484V18.165L796.983,90.81
		L676.667,163.455z M616.507,18.165v36.319l30.079-18.159L616.507,18.165z M616.507,90.81l30.079-18.165l-30.079-18.161V90.81z
		 M603.107,235.283l-62.512-37.746v75.484L603.107,235.283z"/>
	<path fill="#002855" d="M313.869,131.391c-0.098-6.232-3.474-11.623-10.418-11.623c-7.343,0-12.305,3.84-13.694,11.623H313.869z
		 M302.658,108.453c15.083,0,24.111,10.484,24.111,26.778c0,3.015-0.296,5.502-0.296,5.502h-36.516
		c0.594,8.513,7.739,12.347,14.981,12.347c4.764,0,11.013-1.353,14.787-3.428l4.563,10.169c-5.559,3.118-13.396,4.677-19.647,4.677
		c-17.562,0-28.774-11.314-28.774-27.816C275.867,120.077,286.781,108.453,302.658,108.453 M350.385,88.537v60.29
		c0,3.004,1.687,4.356,4.662,4.356c0.696,0,2.185-0.206,3.175-0.413v10.685c-2.676,0.521-6.051,1.043-9.128,1.043
		c-6.25,0-12.105-2.487-12.105-14.742V96.361L350.385,88.537z M402.181,131.391c-0.102-6.232-3.472-11.623-10.421-11.623
		c-7.342,0-12.304,3.84-13.691,11.623H402.181z M390.968,108.453c15.081,0,24.117,10.484,24.117,26.778
		c0,3.015-0.299,5.502-0.299,5.502h-36.519c0.595,8.513,7.739,12.347,14.981,12.347c4.764,0,11.014-1.353,14.788-3.428l4.56,10.169
		c-5.553,3.118-13.393,4.677-19.643,4.677c-17.565,0-28.779-11.314-28.779-27.816C364.174,120.077,375.092,108.453,390.968,108.453
		 M167.969,88.483l0.013,44.771l17.215-23.763h15.978l-20.441,25.328l19.549,28.637h-14.987l-12.3-18.783l-4.963,5.812v12.972
		h-13.395V96.361L167.969,88.483z M438.155,88.483l0.015,44.771l17.221-23.763h15.972l-20.441,25.328l19.545,28.637h-14.979
		l-12.309-18.783l-4.963,5.812v12.972h-13.391V96.361L438.155,88.483z M550.722,109.49l2.184,7.159
		c2.182-4.668,8.433-8.197,14.286-8.197c6.054,0,11.812,3.737,14.193,9.652c2.581-5.29,8.133-9.652,16.665-9.652
		c10.622,0,18.457,6.85,18.457,22.52v32.482h-13.398v-33.413c0-5.505-2.086-10.277-8.334-10.277c-6.638,0-9.522,5.5-9.522,12.56
		v31.13h-13.396v-34.144c0-4.774-2.182-9.546-8.236-9.546c-6.648,0-9.627,5.5-9.627,12.451v31.239h-13.398V109.49H550.722z
		 M501.765,105.776c-16.169,0-29.269,13.708-29.269,30.618c0,16.909,13.1,30.62,29.269,30.62c16.174,0,29.285-13.711,29.285-30.62
		C531.05,119.484,517.939,105.776,501.765,105.776z M501.765,153.785c-9.181,0-16.63-7.784-16.63-17.391
		c0-9.608,7.449-17.389,16.63-17.389c9.187,0,16.629,7.781,16.629,17.389C518.394,146,510.952,153.785,501.765,153.785z
		 M281.877,90.813v12.143h-17.491v60.499h-13.893v-60.499h-17.497V90.813H281.877z M127.135,109.49l-0.048,7.941
		c3.175-6.85,8.056-8.458,17.183-8.458v13.694h-1.686c-8.732,0-14.984,4.568-14.984,16.197v24.59h-13.396V109.49H127.135z
		 M50.385,90.813v12.143H32.892v60.499H19v-60.499H1.504V90.813H50.385z M89.102,163.397l-1.987-6.522
		c-0.452,0.945-4.066,7.463-13.731,7.463c-8.671,0-18.935-4.912-18.935-20.497v-27.375h13.456v27.466
		c0,6.987,3.612,10.11,8.311,10.11c6.141,0,9.904-5.101,9.904-11.905v-25.671h13.222v46.931H89.102z M59.304,97.198h13.394v10.994
		H59.304V97.198z M81.094,97.198H94.49v10.994H81.094V97.198z M571.854,90.813V54.481l30.087,18.167L571.854,90.813z
		 M455.487,212.945v-30.821l25.527,15.413L455.487,212.945z"/>
	<g>
		<polygon fill="#0082CA" points="706.746,54.487 676.667,72.649 676.667,108.973 706.746,127.133 		"/>
		<polygon fill="#002855" points="646.586,90.813 676.667,108.973 676.667,72.649 		"/>
	</g>
</g>
<g id="Layer_1">
</g>
</svg>
