<?xml version="1.0" encoding="utf-8"?>
<!-- Generator: Adobe Illustrator 16.0.0, SVG Export Plug-In . SVG Version: 6.00 Build 0)  -->
<!DOCTYPE svg PUBLIC "-//W3C//DTD SVG 1.1//EN" "http://www.w3.org/Graphics/SVG/1.1/DTD/svg11.dtd">
<svg version="1.1" id="Layer_1" xmlns="http://www.w3.org/2000/svg" xmlns:xlink="http://www.w3.org/1999/xlink" x="0px" y="0px"
	 width="600px" height="800px" viewBox="-130.412 -180 600 800" enable-background="new -130.412 -180 600 800"
	 xml:space="preserve">
<path fill="#2E3192" d="M247.396,186.894h-23.127v68.456l-39.953-67.013h-72.196v163.576h21.73v-67.018l39.95,67.018h73.597V186.894
	 M98.802,352.632V188.338H53.245l-41.354,59.087l-37.149-59.087h-48.366v165.014h22.432V285.62l37.149,61.247l44.157-60.527v66.292
	H98.802L98.802,352.632z M412.113,254.633h-63.781v70.617c0,0-2.806,8.648-9.817,8.648c0,0-11.217,0-11.217-8.648v-85.758
	c0,0,9.11-51.157,54.674-28.096v-22.341c0,0-73.592-30.988-113.547,40.353c0,0-28.04,59.088,18.223,103.766
	c0,0,19.63,21.618,61.685,21.618c0,0,37.848,1.438,63.781-19.459V254.633L412.113,254.633z"/>
<path fill="#F58220" d="M363.05,143.658c-2.804,2.888-5.608,5.768-8.407,9.369c-57.475,6.486-124.763,10.087-195.561,7.203
	c-41.353,14.411-60.974,0.725-76.398-12.248c-13.318-0.721-26.638-2.162-40.653-2.885c-9.819,12.971-29.441,12.971-58.176-0.725
	c-11.917-5.042-10.516-10.084,2.803-16.57c10.516-4.325,24.534-5.045,53.271,0c0.705,1.443,7.01,3.602,7.01,5.045
	c16.824,0.721,31.542,0.721,48.364,1.443c27.336-2.167,35.042-24.508,23.128-47.563c-9.113-17.293-21.727-23.783-28.738-46.838
	c-19.626-60.533,43.456-70.619,72.194-139.797c3.504,2.159,6.31,7.207,7.008,13.693c2.803,13.691,0,21.619-3.504,33.867
	c-1.403,4.322-2.804,9.365-4.202,14.413c4.202,2.88,9.812-5.765,16.119-16.576c3.504,11.528,0.702,25.938-9.113,43.954
	c4.906-3.606,9.815-7.928,14.02-11.523c2.103,8.642-2.106,20.896-10.515,37.468c5.609-3.6,9.113-5.764,15.419-9.37
	c0,5.77-2.802,16.58-11.213,28.828c5.604-2.167,9.811-7.928,15.417-10.085c0.707,8.643-2.801,22.335-9.813,34.588
	c4.902-5.046,6.312-3.605,11.915-8.652c-0.705,10.812,0,15.855-2.802,21.618c-4.211,6.485-8.409,5.764-7.713,14.413
	c0.705,3.601,2.104,5.764,5.612,4.322c9.813-8.649,18.222-18.014,28.729-26.661c16.828-14.412,23.132-13.692,44.859-12.97
	c24.531,0.721,43.456,11.522,66.59,14.411c-15.419,13.691-25.234,11.525-44.86,11.525c4.908,2.167,10.511,3.602,15.421,5.045
	c-11.914,6.486-21.725,6.486-30.84,5.045c0.703,3.602,8.407,5.045,9.813,7.922c-6.309,3.605-17.517,3.605-22.43,2.887
	c1.402,3.6,3.509,7.203,4.907,11.525c-11.915,3.605-16.825,1.443-21.727-0.72c0.699,2.889,1.397,6.485,2.8,9.369
	c-16.12,1.438-29.44,0-40.657-4.323c0,1.434,0,2.881,0.705,4.323c0.702,23.777,54.672,30.265,138.078,27.382
	C347.628,145.102,355.342,144.379,363.05,143.658"/>
<path fill="#F58220" d="M318.897,466.489c0-13.696,4.204-25.224,12.609-33.152c7.716-7.927,19.631-11.526,33.645-11.526
	c14.717,0,25.934,3.6,34.347,11.526c8.41,7.929,12.614,19.451,12.614,33.152c0,13.687-4.204,25.22-12.614,33.145
	c-8.413,7.925-19.63,11.53-34.347,11.53c-14.014,0-25.236-3.605-33.645-11.53C323.097,491.707,318.897,480.176,318.897,466.489
	 M351.837,466.489c0,7.921,1.397,12.965,3.504,16.572c2.102,3.603,5.609,5.044,9.813,5.044c4.905,0,8.409-1.438,10.514-5.044
	c2.103-3.607,3.504-8.651,3.504-16.572c0-7.928-1.401-12.976-3.504-16.575c-2.104-3.605-5.608-5.047-10.514-5.047
	c-4.204,0-7.712,1.438-9.813,5.047C353.238,453.514,351.837,458.562,351.837,466.489z M219.363,517.649h32.242
	c0.701,2.162,1.396,2.886,2.801,4.322c2.104,0.722,4.208,1.44,7.011,1.44c4.908,0,7.711-1.44,9.814-3.601
	c1.4-2.162,2.804-7.202,2.804-14.411v-4.326c-2.804,2.883-6.309,4.326-10.517,5.76c-3.504,1.441-7.712,2.168-12.616,2.168
	c-11.216,0-20.324-3.602-26.631-11.53c-7.013-7.204-10.517-18.018-10.517-30.982c0-12.976,3.504-23.78,9.816-31.709
	c6.311-8.647,14.719-12.249,25.936-12.249c5.609,0,10.513,0.725,15.419,2.883c4.208,2.165,8.408,5.771,11.215,10.093V424.7h29.44
	v77.094c0,14.415-3.504,25.226-10.512,30.989c-7.008,6.489-18.929,9.363-35.742,9.363c-11.917,0-21.032-2.157-28.039-6.484
	C224.967,531.342,220.769,525.576,219.363,517.649z M246.699,465.77c0,7.201,1.393,12.248,3.503,15.129
	c2.101,3.604,4.902,5.044,9.812,5.044c4.911,0,8.41-1.436,10.517-5.044c2.101-2.881,3.504-7.928,3.504-15.129
	c0-5.771-1.403-10.09-4.21-13.69c-2.103-3.605-5.606-5.048-9.815-5.048c-4.208,0-7.712,1.442-9.812,5.048
	C248.099,454.954,246.699,459.276,246.699,465.77z M147.166,508.275v-83.586h30.139v15.135c2.102-5.764,5.605-10.087,9.107-12.973
	c4.211-2.882,9.816-4.324,16.828-4.324h2.802v33.152h-3.502l-3.504-0.727c-6.312,0-11.215,2.162-14.719,5.045
	c-2.803,2.886-4.209,7.926-4.209,14.412v33.865H147.166L147.166,508.275z M98.802,508.275l-2.101-7.922
	c-4.207,3.601-9.113,6.484-14.018,8.649c-4.908,1.437-10.518,2.163-16.122,2.163c-9.113,0-16.821-2.163-21.73-6.486
	c-4.904-5.046-7.713-11.527-7.713-20.178c0-7.924,2.805-13.688,7.713-18.011c4.909-3.604,14.723-6.493,28.04-8.647l7.706-0.729
	c9.819-1.436,15.421-3.602,15.421-8.647c0-2.163-1.399-3.601-2.802-5.042c-2.102-0.726-4.906-1.445-9.11-1.445
	c-3.509,0-5.609,0.725-7.711,2.165c-2.104,0.722-2.804,2.879-3.504,5.765H41.326c0-9.37,3.504-15.855,11.216-20.899
	c7.713-5.044,18.224-7.204,32.948-7.204c6.311,0,12.617,0.721,18.223,1.441c6.309,1.437,10.508,3.597,13.317,5.763
	c4.206,2.163,7.006,5.044,8.41,8.647c0.705,2.16,1.398,3.604,2.105,6.487c0,2.159,0.7,5.046,0.7,7.927v46.839
	c0,1.435,0,2.879,0.706,4.321c0.7,0.722,1.395,2.164,2.802,2.884v2.159H98.802L98.802,508.275z M95.301,470.812
	c-2.803,1.442-7.013,2.883-12.617,4.321c-7.714,2.164-11.916,5.047-11.916,8.654c0,2.155,0.704,4.322,2.105,5.759
	c2.1,1.441,4.204,2.167,7.007,2.167c5.609,0,9.812-1.441,11.916-4.332c2.8-2.157,4.202-6.484,4.202-12.248l-0.698-2.163
	C95.301,472.254,95.301,471.532,95.301,470.812z M-64.51,508.275V395.149h32.942v55.486l21.727-25.939h36.449l-30.84,30.987
	l35.051,52.6H-7.736l-18.226-29.542l-5.606,5.761v23.773H-64.51L-64.51,508.275z"/>
<path fill="none" stroke="#F58220" stroke-width="5.0668" stroke-miterlimit="2.613" d="M172.401-177.001
	c87.617-0.719,174.529,23.065,259.341,70.617c12.617,7.207,25.233,14.415,37.851,22.342c0,0,0,597.366,0,599.53v2.161
	c0,2.162,0,5.041,0,7.925v1.438c-12.617,7.204-25.233,14.415-37.851,21.615c-84.812,47.563-171.724,71.341-259.341,71.341
	c-100.236,0.728-201.87-28.824-303.499-92.956V-84.041C-29.468-148.896,72.166-178.439,172.401-177.001z"/>
<path fill="none" stroke="#2E3192" stroke-width="5.0668" stroke-miterlimit="2.613" d="M172.401-169.075
	c85.512-0.719,168.924,23.063,251.629,69.901c12.612,6.483,24.53,13.688,37.149,20.898v1.439c0,2.884,0,597.368,0,597.368
	c-12.617,7.929-24.532,14.41-37.149,21.618c-82.705,46.839-166.117,69.896-251.629,69.177
	c-97.429,1.44-196.261-28.106-295.091-90.795V-78.276C-23.857-140.967,74.97-170.512,172.401-169.075z"/>
</svg>
