<?xml version="1.0" encoding="utf-8"?>
<!-- Generator: Adobe Illustrator 16.0.0, SVG Export Plug-In . SVG Version: 6.00 Build 0)  -->
<!DOCTYPE svg PUBLIC "-//W3C//DTD SVG 1.1//EN" "http://www.w3.org/Graphics/SVG/1.1/DTD/svg11.dtd">
<svg version="1.1" id="Layer_1" xmlns="http://www.w3.org/2000/svg" xmlns:xlink="http://www.w3.org/1999/xlink" x="0px" y="0px"
	 width="800px" height="393.345px" viewBox="-283.578 -111.896 800 393.345" enable-background="new -283.578 -111.896 800 393.345"
	 xml:space="preserve">
<g>
	
		<radialGradient id="SVGID_1_" cx="11.5706" cy="-543.1885" r="79.2569" gradientTransform="matrix(3.4222 0 0 -3.1344 126.6013 -1766.1331)" gradientUnits="userSpaceOnUse">
		<stop  offset="0" style="stop-color:#FFFFFF"/>
		<stop  offset="0.2" style="stop-color:#FFD65A"/>
		<stop  offset="1" style="stop-color:#FFD65A"/>
	</radialGradient>
	<path fill="url(#SVGID_1_)" d="M117.921,130.715c66.479,0,120.703-53.22,120.703-118.479c0-65.254-54.221-118.477-120.703-118.477
		c-66.483,0-120.704,53.218-120.704,118.48C-2.782,77.498,51.438,130.715,117.921,130.715z"/>
	<path fill="#FFFFFF" d="M-7.866,27.154c0,0,23.926-61.56,71.296-74.149c0,0-4.592-20.988,15.777-29.394
		c0,0,27.508-13.529,41.261,16.336c0,0,8.658,22.858-10.197,33.117c0,0-28.518,13.994-38.69-4.205c0,0-63.675,35.921-55.023,117.536
		L-4.306,47.685L-7.866,27.154z"/>
	<path fill="#FFFFFF" d="M31.854,107.389c0,0,24.945-79.278,124.777-106.35c0,0,0.512-19.112,17.315-25.658
		c0,0,17.826-12.578,36.678,14.005c0,0,10.682,27.503-8.147,38.249c0,0-25.977,12.587-37.704-5.602
		c0,0-75.877,21.465-92.681,117.553l-30.563-22.853L31.854,107.389z"/>
	<path fill="#233288" d="M-27.957,241.009v-21.388h8.492c0,0,10.049-1.633,10.049-11.132c0,0,1.311-10.397-10.049-8.925h-8.492
		v-21.474h15.981c0,0,25.042,0,27.348,21.354c0,0,5.595,21.693-12.315,29.973c0,0,11.543,5.814,9.81,18.689
		c0,0,0,14.484,0.985,18.004c0,0,0,3.698,3.836,4.402v6.881H-9.657c0,0-3.278-4.592-3.472-10.771c0,0-0.939-14.837-0.174-20.143
		c0,0-1.48-6.222-7.152-5.491h-7.506v0.02H-27.957z M32.71,178.098h26.776v37.924l37.143-37.924h32.153l-43.493,43.936
		l47.354,55.372h-32.341l-31.977-38.622l-8.839,8.984v29.638h-26.98L32.71,178.098L32.71,178.098z M183.287,198.046
		c11.587,0,20.56-0.046,23.602,16.73h26.081c0.591-13.924-11.18-38.252-46.12-38.252c-34.954,0-51.878,23.386-51.878,52.28
		c0,28.882,16.921,52.365,51.878,52.365c34.94,0,47.096-26.173,46.511-40.091h-26.472c-1.634,15.693-11.747,18.635-23.792,18.635
		c-14.19,0-22.325-13.8-22.325-30.852C160.776,211.875,169.123,198.046,183.287,198.046L183.287,198.046z M327.491,198.646v-20.572
		h-80.282v99.105h83.41v-20.109h-56.66v-20.925h49.468v-20.254h-49.468v-17.395L327.491,198.646L327.491,198.646z M372.709,177.981
		h-26.823v99.393h77.337v-20.392h-50.514V177.981L372.709,177.981z M465.84,177.981h-26.818v99.393h77.323v-20.392H465.84V177.981z
		 M-280.5,199.512v-21.436h89.305v21.436h-30.556v77.833h-26.934v-77.833H-280.5L-280.5,199.512z M-27.957,178.098v21.47h-18.579
		v20.049h18.579v21.38h-18.579v36.52h-26.923l0.227-99.425h45.275V178.098z M-180.841,178.076v59.632
		c0,0-6.146,43.741,44.087,43.741c0,0,44.315,0.53,44.315-43.741v-59.617h-26.786v70.01c0,0,2.139,11.998-17.529,11.998
		c0,0-17.128,1.243-17.128-11.998v-70.024H-180.841L-180.841,178.076z"/>
</g>
</svg>
